<mxfile host="app.diagrams.net" agent="Mozilla/5.0 (Windows NT 10.0; Win64; x64) AppleWebKit/537.36 (KHTML, like Gecko) Chrome/129.0.0.0 Safari/537.36" version="24.7.17">
  <diagram name="Página-1" id="W5EFGy5HbnPb3EcdutTb">
    <mxGraphModel dx="4341" dy="2483" grid="1" gridSize="10" guides="1" tooltips="1" connect="1" arrows="1" fold="1" page="1" pageScale="1" pageWidth="827" pageHeight="1169" math="0" shadow="0">
      <root>
        <mxCell id="0" />
        <mxCell id="1" parent="0" />
        <mxCell id="PbY_IpyNOD0vH7J5O5M_-1" value="&lt;font size=&quot;3&quot;&gt;Diagrama de flujo del punto B&lt;/font&gt;&lt;div&gt;&lt;font size=&quot;3&quot;&gt;Programa que adivina el numero&amp;nbsp;&lt;/font&gt;&lt;/div&gt;" style="rounded=1;whiteSpace=wrap;html=1;" vertex="1" parent="1">
          <mxGeometry x="90" y="-20" width="420" height="60" as="geometry" />
        </mxCell>
        <mxCell id="PbY_IpyNOD0vH7J5O5M_-3" value="&lt;div&gt;&lt;b&gt;minimo = 1&lt;/b&gt;&lt;/div&gt;&lt;div&gt;&lt;b&gt;&amp;nbsp; &amp;nbsp; maximo = 1000&lt;/b&gt;&lt;/div&gt;&lt;div&gt;&lt;b&gt;&amp;nbsp; &amp;nbsp; intentos = 0&lt;/b&gt;&lt;/div&gt;" style="rounded=1;whiteSpace=wrap;html=1;" vertex="1" parent="1">
          <mxGeometry x="120" y="60" width="120" height="60" as="geometry" />
        </mxCell>
        <mxCell id="PbY_IpyNOD0vH7J5O5M_-5" value="&lt;b&gt;print(&quot;Piensa un numero entre 1 y 1000&quot;)&lt;/b&gt;" style="rounded=1;whiteSpace=wrap;html=1;" vertex="1" parent="1">
          <mxGeometry x="280" y="60" width="120" height="60" as="geometry" />
        </mxCell>
        <mxCell id="PbY_IpyNOD0vH7J5O5M_-49" style="edgeStyle=orthogonalEdgeStyle;rounded=0;orthogonalLoop=1;jettySize=auto;html=1;exitX=1;exitY=0.5;exitDx=0;exitDy=0;" edge="1" parent="1" source="PbY_IpyNOD0vH7J5O5M_-8" target="PbY_IpyNOD0vH7J5O5M_-48">
          <mxGeometry relative="1" as="geometry" />
        </mxCell>
        <mxCell id="PbY_IpyNOD0vH7J5O5M_-8" value="&lt;div&gt;&lt;div&gt;&lt;b&gt;while intentos &amp;lt; 10:&lt;/b&gt;&lt;/div&gt;&lt;div&gt;&lt;b&gt;&amp;nbsp; &amp;nbsp; &amp;nbsp; &amp;nbsp; intentos += 1&lt;/b&gt;&lt;/div&gt;&lt;div&gt;&lt;b&gt;&amp;nbsp; &amp;nbsp; &amp;nbsp; &amp;nbsp; numero = (minimo + maximo) // 2&lt;/b&gt;&lt;/div&gt;&lt;div&gt;&lt;b&gt;&amp;nbsp; &amp;nbsp; &amp;nbsp; &amp;nbsp; print(f&quot;¿El número es {numero}?&quot;)&lt;/b&gt;&lt;/div&gt;&lt;/div&gt;&lt;div&gt;&lt;b&gt;&lt;br&gt;&lt;/b&gt;&lt;/div&gt;&lt;div&gt;&lt;div&gt;&lt;b&gt;respuesta = input(&quot;Responde con &amp;lt;, &amp;gt; o =: &quot;)&lt;/b&gt;&lt;/div&gt;&lt;div&gt;&lt;br&gt;&lt;/div&gt;&lt;/div&gt;" style="rounded=1;whiteSpace=wrap;html=1;" vertex="1" parent="1">
          <mxGeometry x="162" y="140" width="218" height="130" as="geometry" />
        </mxCell>
        <mxCell id="PbY_IpyNOD0vH7J5O5M_-21" value="&lt;div&gt;&lt;b&gt;elif respuesta == &quot;&amp;lt;&quot;:&lt;/b&gt;&lt;/div&gt;" style="rounded=1;whiteSpace=wrap;html=1;" vertex="1" parent="1">
          <mxGeometry x="50" y="350" width="140" height="40" as="geometry" />
        </mxCell>
        <mxCell id="PbY_IpyNOD0vH7J5O5M_-53" style="edgeStyle=orthogonalEdgeStyle;rounded=0;orthogonalLoop=1;jettySize=auto;html=1;exitX=0.5;exitY=1;exitDx=0;exitDy=0;entryX=0.5;entryY=0;entryDx=0;entryDy=0;" edge="1" parent="1" source="PbY_IpyNOD0vH7J5O5M_-22" target="PbY_IpyNOD0vH7J5O5M_-51">
          <mxGeometry relative="1" as="geometry" />
        </mxCell>
        <mxCell id="PbY_IpyNOD0vH7J5O5M_-22" value="&lt;div&gt;&lt;b&gt;&amp;nbsp; if respuesta == &quot;=&quot;:&lt;/b&gt;&lt;/div&gt;" style="rounded=1;whiteSpace=wrap;html=1;" vertex="1" parent="1">
          <mxGeometry x="-130" y="350" width="130" height="55" as="geometry" />
        </mxCell>
        <mxCell id="PbY_IpyNOD0vH7J5O5M_-57" style="edgeStyle=orthogonalEdgeStyle;rounded=0;orthogonalLoop=1;jettySize=auto;html=1;exitX=0.5;exitY=1;exitDx=0;exitDy=0;entryX=0.5;entryY=0;entryDx=0;entryDy=0;" edge="1" parent="1" source="PbY_IpyNOD0vH7J5O5M_-24" target="PbY_IpyNOD0vH7J5O5M_-39">
          <mxGeometry relative="1" as="geometry" />
        </mxCell>
        <mxCell id="PbY_IpyNOD0vH7J5O5M_-24" value="&lt;div&gt;&lt;b&gt;elif respuesta == &quot;&amp;gt;&quot;:&lt;/b&gt;&lt;/div&gt;" style="rounded=1;whiteSpace=wrap;html=1;" vertex="1" parent="1">
          <mxGeometry x="336" y="350" width="136" height="40" as="geometry" />
        </mxCell>
        <mxCell id="PbY_IpyNOD0vH7J5O5M_-26" value="&lt;div&gt;&lt;b&gt;else:&lt;/b&gt;&lt;/div&gt;&lt;div&gt;&lt;b&gt;&amp;nbsp; &amp;nbsp; &amp;nbsp; &amp;nbsp; &amp;nbsp; &amp;nbsp; print(&quot;caracter incorrecto, responde con &amp;lt;, &amp;gt; o =&quot;)&lt;/b&gt;&lt;/div&gt;&lt;div&gt;&lt;b&gt;&lt;br&gt;&lt;/b&gt;&lt;/div&gt;&lt;div&gt;&lt;b&gt;&amp;nbsp; &amp;nbsp;&lt;/b&gt;&lt;/div&gt;" style="rounded=1;whiteSpace=wrap;html=1;" vertex="1" parent="1">
          <mxGeometry x="580" y="350" width="130" height="110" as="geometry" />
        </mxCell>
        <mxCell id="PbY_IpyNOD0vH7J5O5M_-27" value="&lt;b&gt;&amp;nbsp;print(&quot;No pude adivinar el número en 10 intentos&quot;)&lt;/b&gt;" style="rounded=1;whiteSpace=wrap;html=1;" vertex="1" parent="1">
          <mxGeometry x="620" y="140" width="130" height="60" as="geometry" />
        </mxCell>
        <mxCell id="PbY_IpyNOD0vH7J5O5M_-28" value="&lt;b&gt;&amp;nbsp; &amp;nbsp; &amp;nbsp; &amp;nbsp; &amp;nbsp; print(&quot;estas haciendo trampa. ¿se te olvido el numero?&quot;)&lt;/b&gt;" style="rounded=1;whiteSpace=wrap;html=1;" vertex="1" parent="1">
          <mxGeometry x="410" y="550" width="170" height="60" as="geometry" />
        </mxCell>
        <mxCell id="PbY_IpyNOD0vH7J5O5M_-29" value="&lt;b&gt;return&lt;/b&gt;" style="rounded=1;whiteSpace=wrap;html=1;" vertex="1" parent="1">
          <mxGeometry x="455" y="650" width="80" height="50" as="geometry" />
        </mxCell>
        <mxCell id="PbY_IpyNOD0vH7J5O5M_-33" value="" style="endArrow=classic;html=1;rounded=0;exitX=0.5;exitY=1;exitDx=0;exitDy=0;entryX=0.5;entryY=0;entryDx=0;entryDy=0;" edge="1" parent="1" source="PbY_IpyNOD0vH7J5O5M_-28" target="PbY_IpyNOD0vH7J5O5M_-29">
          <mxGeometry width="50" height="50" relative="1" as="geometry">
            <mxPoint x="290" y="460" as="sourcePoint" />
            <mxPoint x="289" y="491" as="targetPoint" />
          </mxGeometry>
        </mxCell>
        <mxCell id="PbY_IpyNOD0vH7J5O5M_-35" value="" style="endArrow=classic;html=1;rounded=0;exitX=1.001;exitY=0.592;exitDx=0;exitDy=0;exitPerimeter=0;entryX=1;entryY=0.25;entryDx=0;entryDy=0;" edge="1" parent="1">
          <mxGeometry width="50" height="50" relative="1" as="geometry">
            <mxPoint x="535.0799999999999" y="682.5999999999999" as="sourcePoint" />
            <mxPoint x="400" y="77.99999999999977" as="targetPoint" />
            <Array as="points">
              <mxPoint x="780" y="683" />
              <mxPoint x="780" y="83" />
            </Array>
          </mxGeometry>
        </mxCell>
        <mxCell id="PbY_IpyNOD0vH7J5O5M_-44" style="edgeStyle=orthogonalEdgeStyle;rounded=0;orthogonalLoop=1;jettySize=auto;html=1;exitX=0.75;exitY=1;exitDx=0;exitDy=0;" edge="1" parent="1" source="PbY_IpyNOD0vH7J5O5M_-39" target="PbY_IpyNOD0vH7J5O5M_-28">
          <mxGeometry relative="1" as="geometry" />
        </mxCell>
        <mxCell id="PbY_IpyNOD0vH7J5O5M_-39" value="&lt;b&gt;if numero == maximo:&lt;/b&gt;" style="rounded=1;whiteSpace=wrap;html=1;" vertex="1" parent="1">
          <mxGeometry x="344" y="430" width="120" height="60" as="geometry" />
        </mxCell>
        <mxCell id="PbY_IpyNOD0vH7J5O5M_-41" value="si" style="text;html=1;align=center;verticalAlign=middle;resizable=0;points=[];autosize=1;strokeColor=none;fillColor=none;" vertex="1" parent="1">
          <mxGeometry x="434" y="490" width="30" height="30" as="geometry" />
        </mxCell>
        <mxCell id="PbY_IpyNOD0vH7J5O5M_-42" value="no" style="text;html=1;align=center;verticalAlign=middle;resizable=0;points=[];autosize=1;strokeColor=none;fillColor=none;" vertex="1" parent="1">
          <mxGeometry x="329" y="490" width="40" height="30" as="geometry" />
        </mxCell>
        <mxCell id="PbY_IpyNOD0vH7J5O5M_-45" value="&lt;b&gt;minimo = numero + 1&lt;/b&gt;" style="rounded=1;whiteSpace=wrap;html=1;" vertex="1" parent="1">
          <mxGeometry x="260" y="600" width="120" height="60" as="geometry" />
        </mxCell>
        <mxCell id="PbY_IpyNOD0vH7J5O5M_-46" style="edgeStyle=orthogonalEdgeStyle;rounded=0;orthogonalLoop=1;jettySize=auto;html=1;exitX=0.25;exitY=1;exitDx=0;exitDy=0;entryX=0.942;entryY=0.042;entryDx=0;entryDy=0;entryPerimeter=0;" edge="1" parent="1" source="PbY_IpyNOD0vH7J5O5M_-39" target="PbY_IpyNOD0vH7J5O5M_-45">
          <mxGeometry relative="1" as="geometry" />
        </mxCell>
        <mxCell id="PbY_IpyNOD0vH7J5O5M_-47" value="" style="endArrow=classic;html=1;rounded=0;exitX=0;exitY=0.5;exitDx=0;exitDy=0;entryX=0;entryY=0.25;entryDx=0;entryDy=0;" edge="1" parent="1" source="PbY_IpyNOD0vH7J5O5M_-45" target="PbY_IpyNOD0vH7J5O5M_-8">
          <mxGeometry width="50" height="50" relative="1" as="geometry">
            <mxPoint x="420" y="500" as="sourcePoint" />
            <mxPoint x="470" y="450" as="targetPoint" />
            <Array as="points">
              <mxPoint x="-180" y="630" />
              <mxPoint x="-180" y="173" />
            </Array>
          </mxGeometry>
        </mxCell>
        <mxCell id="PbY_IpyNOD0vH7J5O5M_-50" style="edgeStyle=orthogonalEdgeStyle;rounded=0;orthogonalLoop=1;jettySize=auto;html=1;exitX=1;exitY=0.5;exitDx=0;exitDy=0;entryX=0;entryY=0.5;entryDx=0;entryDy=0;" edge="1" parent="1" source="PbY_IpyNOD0vH7J5O5M_-48" target="PbY_IpyNOD0vH7J5O5M_-27">
          <mxGeometry relative="1" as="geometry" />
        </mxCell>
        <mxCell id="PbY_IpyNOD0vH7J5O5M_-48" value="&lt;b&gt;intentos &amp;gt; 10:&lt;/b&gt;" style="rounded=1;whiteSpace=wrap;html=1;" vertex="1" parent="1">
          <mxGeometry x="480" y="140" width="120" height="60" as="geometry" />
        </mxCell>
        <mxCell id="PbY_IpyNOD0vH7J5O5M_-51" value="&lt;div&gt;&lt;b&gt;&amp;nbsp;&amp;nbsp; print(f&quot;El numero es {numero}&quot;)&lt;/b&gt;&lt;/div&gt;&lt;div&gt;&lt;b&gt;&amp;nbsp; &amp;nbsp; &amp;nbsp; &amp;nbsp; &amp;nbsp; &amp;nbsp; print(f&quot;Intentos: {intentos}&quot;)&lt;/b&gt;&lt;/div&gt;" style="rounded=1;whiteSpace=wrap;html=1;" vertex="1" parent="1">
          <mxGeometry x="-130" y="430" width="120" height="90" as="geometry" />
        </mxCell>
        <mxCell id="PbY_IpyNOD0vH7J5O5M_-54" style="edgeStyle=orthogonalEdgeStyle;rounded=0;orthogonalLoop=1;jettySize=auto;html=1;exitX=0.5;exitY=1;exitDx=0;exitDy=0;" edge="1" parent="1" source="PbY_IpyNOD0vH7J5O5M_-51" target="PbY_IpyNOD0vH7J5O5M_-51">
          <mxGeometry relative="1" as="geometry" />
        </mxCell>
        <mxCell id="PbY_IpyNOD0vH7J5O5M_-63" style="edgeStyle=orthogonalEdgeStyle;rounded=0;orthogonalLoop=1;jettySize=auto;html=1;exitX=0.25;exitY=1;exitDx=0;exitDy=0;entryX=0.589;entryY=0.018;entryDx=0;entryDy=0;entryPerimeter=0;" edge="1" parent="1" source="PbY_IpyNOD0vH7J5O5M_-56" target="PbY_IpyNOD0vH7J5O5M_-61">
          <mxGeometry relative="1" as="geometry">
            <mxPoint x="89.52941176470586" y="480" as="targetPoint" />
          </mxGeometry>
        </mxCell>
        <mxCell id="PbY_IpyNOD0vH7J5O5M_-56" value="&lt;b&gt;if numero == minimo:&lt;/b&gt;" style="rounded=1;whiteSpace=wrap;html=1;" vertex="1" parent="1">
          <mxGeometry x="60" y="430" width="120" height="60" as="geometry" />
        </mxCell>
        <mxCell id="PbY_IpyNOD0vH7J5O5M_-58" value="no" style="text;html=1;align=center;verticalAlign=middle;resizable=0;points=[];autosize=1;strokeColor=none;fillColor=none;" vertex="1" parent="1">
          <mxGeometry x="50" y="495" width="40" height="30" as="geometry" />
        </mxCell>
        <mxCell id="PbY_IpyNOD0vH7J5O5M_-59" value="si" style="text;html=1;align=center;verticalAlign=middle;resizable=0;points=[];autosize=1;strokeColor=none;fillColor=none;" vertex="1" parent="1">
          <mxGeometry x="150" y="495" width="30" height="30" as="geometry" />
        </mxCell>
        <mxCell id="PbY_IpyNOD0vH7J5O5M_-60" value="" style="endArrow=classic;html=1;rounded=0;exitX=0.75;exitY=1;exitDx=0;exitDy=0;entryX=0;entryY=0.25;entryDx=0;entryDy=0;" edge="1" parent="1" source="PbY_IpyNOD0vH7J5O5M_-56" target="PbY_IpyNOD0vH7J5O5M_-28">
          <mxGeometry width="50" height="50" relative="1" as="geometry">
            <mxPoint x="350" y="480" as="sourcePoint" />
            <mxPoint x="400" y="430" as="targetPoint" />
            <Array as="points">
              <mxPoint x="150" y="565" />
            </Array>
          </mxGeometry>
        </mxCell>
        <mxCell id="PbY_IpyNOD0vH7J5O5M_-61" value="&lt;b&gt;&amp;nbsp;maximo = numero - 1&lt;/b&gt;" style="rounded=1;whiteSpace=wrap;html=1;" vertex="1" parent="1">
          <mxGeometry x="20" y="550" width="120" height="60" as="geometry" />
        </mxCell>
        <mxCell id="PbY_IpyNOD0vH7J5O5M_-62" value="" style="endArrow=classic;html=1;rounded=0;exitX=0.5;exitY=1;exitDx=0;exitDy=0;" edge="1" parent="1" source="PbY_IpyNOD0vH7J5O5M_-61">
          <mxGeometry width="50" height="50" relative="1" as="geometry">
            <mxPoint x="350" y="480" as="sourcePoint" />
            <mxPoint x="-70" y="630" as="targetPoint" />
            <Array as="points">
              <mxPoint x="80" y="630" />
            </Array>
          </mxGeometry>
        </mxCell>
        <mxCell id="PbY_IpyNOD0vH7J5O5M_-64" value="" style="endArrow=classic;html=1;rounded=0;exitX=0.466;exitY=1;exitDx=0;exitDy=0;exitPerimeter=0;entryX=0.5;entryY=0;entryDx=0;entryDy=0;" edge="1" parent="1" source="PbY_IpyNOD0vH7J5O5M_-8" target="PbY_IpyNOD0vH7J5O5M_-22">
          <mxGeometry width="50" height="50" relative="1" as="geometry">
            <mxPoint x="246" y="380" as="sourcePoint" />
            <mxPoint x="296" y="330" as="targetPoint" />
            <Array as="points">
              <mxPoint x="264" y="300" />
              <mxPoint x="-65" y="300" />
            </Array>
          </mxGeometry>
        </mxCell>
        <mxCell id="PbY_IpyNOD0vH7J5O5M_-65" value="" style="endArrow=classic;html=1;rounded=0;exitX=0.75;exitY=0;exitDx=0;exitDy=0;" edge="1" parent="1" source="PbY_IpyNOD0vH7J5O5M_-26">
          <mxGeometry width="50" height="50" relative="1" as="geometry">
            <mxPoint x="350" y="400" as="sourcePoint" />
            <mxPoint x="386" y="250" as="targetPoint" />
            <Array as="points">
              <mxPoint x="678" y="250" />
            </Array>
          </mxGeometry>
        </mxCell>
        <mxCell id="PbY_IpyNOD0vH7J5O5M_-66" value="" style="endArrow=classic;html=1;rounded=0;entryX=0.5;entryY=0;entryDx=0;entryDy=0;" edge="1" parent="1" target="PbY_IpyNOD0vH7J5O5M_-26">
          <mxGeometry width="50" height="50" relative="1" as="geometry">
            <mxPoint x="395" y="300" as="sourcePoint" />
            <mxPoint x="395" y="380" as="targetPoint" />
            <Array as="points">
              <mxPoint x="645" y="300" />
            </Array>
          </mxGeometry>
        </mxCell>
        <mxCell id="PbY_IpyNOD0vH7J5O5M_-67" value="" style="endArrow=classic;html=1;rounded=0;entryX=0.486;entryY=-0.019;entryDx=0;entryDy=0;entryPerimeter=0;exitX=0.467;exitY=0.999;exitDx=0;exitDy=0;exitPerimeter=0;" edge="1" parent="1" source="PbY_IpyNOD0vH7J5O5M_-8">
          <mxGeometry width="50" height="50" relative="1" as="geometry">
            <mxPoint x="255.7159999999999" y="268.8699999999999" as="sourcePoint" />
            <mxPoint x="395.096" y="348.24" as="targetPoint" />
            <Array as="points">
              <mxPoint x="263" y="299" />
              <mxPoint x="395" y="300" />
            </Array>
          </mxGeometry>
        </mxCell>
        <mxCell id="PbY_IpyNOD0vH7J5O5M_-68" value="" style="endArrow=classic;html=1;rounded=0;exitX=0.464;exitY=1.005;exitDx=0;exitDy=0;exitPerimeter=0;entryX=0.5;entryY=0;entryDx=0;entryDy=0;" edge="1" parent="1" source="PbY_IpyNOD0vH7J5O5M_-8" target="PbY_IpyNOD0vH7J5O5M_-21">
          <mxGeometry width="50" height="50" relative="1" as="geometry">
            <mxPoint x="350" y="430" as="sourcePoint" />
            <mxPoint x="400" y="380" as="targetPoint" />
            <Array as="points">
              <mxPoint x="263" y="300" />
              <mxPoint x="120" y="300" />
            </Array>
          </mxGeometry>
        </mxCell>
        <mxCell id="PbY_IpyNOD0vH7J5O5M_-69" value="" style="endArrow=classic;html=1;rounded=0;exitX=0.5;exitY=1;exitDx=0;exitDy=0;entryX=0.5;entryY=0;entryDx=0;entryDy=0;" edge="1" parent="1" source="PbY_IpyNOD0vH7J5O5M_-21" target="PbY_IpyNOD0vH7J5O5M_-56">
          <mxGeometry width="50" height="50" relative="1" as="geometry">
            <mxPoint x="260" y="410" as="sourcePoint" />
            <mxPoint x="310" y="360" as="targetPoint" />
          </mxGeometry>
        </mxCell>
        <mxCell id="PbY_IpyNOD0vH7J5O5M_-70" value="" style="endArrow=classic;html=1;rounded=0;exitX=1;exitY=0.5;exitDx=0;exitDy=0;entryX=0;entryY=0.5;entryDx=0;entryDy=0;" edge="1" parent="1" source="PbY_IpyNOD0vH7J5O5M_-3" target="PbY_IpyNOD0vH7J5O5M_-5">
          <mxGeometry width="50" height="50" relative="1" as="geometry">
            <mxPoint x="270" y="340" as="sourcePoint" />
            <mxPoint x="320" y="290" as="targetPoint" />
          </mxGeometry>
        </mxCell>
        <mxCell id="PbY_IpyNOD0vH7J5O5M_-71" value="" style="endArrow=classic;html=1;rounded=0;exitX=0.5;exitY=1;exitDx=0;exitDy=0;" edge="1" parent="1" source="PbY_IpyNOD0vH7J5O5M_-5">
          <mxGeometry width="50" height="50" relative="1" as="geometry">
            <mxPoint x="270" y="340" as="sourcePoint" />
            <mxPoint x="340" y="140" as="targetPoint" />
          </mxGeometry>
        </mxCell>
        <mxCell id="PbY_IpyNOD0vH7J5O5M_-72" value="&lt;font size=&quot;3&quot;&gt;DIEGRAMA DE FLUJO DEL PUNTO C&lt;/font&gt;&lt;div&gt;&lt;font size=&quot;3&quot;&gt;CALCULO DE CEROS&lt;/font&gt;&lt;/div&gt;" style="rounded=1;whiteSpace=wrap;html=1;" vertex="1" parent="1">
          <mxGeometry x="1410" y="-20" width="490" height="60" as="geometry" />
        </mxCell>
        <mxCell id="PbY_IpyNOD0vH7J5O5M_-73" value="def bolzano(f, a, b, e):" style="rounded=1;whiteSpace=wrap;html=1;" vertex="1" parent="1">
          <mxGeometry x="1570" y="70" width="170" height="60" as="geometry" />
        </mxCell>
        <mxCell id="PbY_IpyNOD0vH7J5O5M_-75" value="if f(a) * f(b) &amp;gt; 0:" style="rounded=1;whiteSpace=wrap;html=1;" vertex="1" parent="1">
          <mxGeometry x="1595" y="150" width="120" height="60" as="geometry" />
        </mxCell>
        <mxCell id="PbY_IpyNOD0vH7J5O5M_-76" value="si" style="text;html=1;align=center;verticalAlign=middle;resizable=0;points=[];autosize=1;strokeColor=none;fillColor=none;" vertex="1" parent="1">
          <mxGeometry x="1740" y="180" width="30" height="30" as="geometry" />
        </mxCell>
        <mxCell id="PbY_IpyNOD0vH7J5O5M_-77" value="no" style="text;html=1;align=center;verticalAlign=middle;resizable=0;points=[];autosize=1;strokeColor=none;fillColor=none;" vertex="1" parent="1">
          <mxGeometry x="1530" y="180" width="40" height="30" as="geometry" />
        </mxCell>
        <mxCell id="PbY_IpyNOD0vH7J5O5M_-78" value="&lt;div&gt;raise ValueError&lt;/div&gt;" style="rounded=1;whiteSpace=wrap;html=1;" vertex="1" parent="1">
          <mxGeometry x="1810" y="150" width="110" height="60" as="geometry" />
        </mxCell>
        <mxCell id="PbY_IpyNOD0vH7J5O5M_-80" value="&lt;div&gt;&amp;nbsp;antilope= a&lt;/div&gt;&lt;div&gt;&amp;nbsp; &amp;nbsp; brasil = b&lt;/div&gt;" style="rounded=1;whiteSpace=wrap;html=1;" vertex="1" parent="1">
          <mxGeometry x="1380" y="150" width="120" height="60" as="geometry" />
        </mxCell>
        <mxCell id="PbY_IpyNOD0vH7J5O5M_-81" value="&lt;div&gt;&amp;nbsp;while True:&lt;/div&gt;&lt;div&gt;&lt;span style=&quot;background-color: initial;&quot;&gt;&amp;nbsp;camaron = (antilope + brasil) / 2&lt;/span&gt;&lt;/div&gt;" style="rounded=1;whiteSpace=wrap;html=1;" vertex="1" parent="1">
          <mxGeometry x="1350" y="250" width="180" height="40" as="geometry" />
        </mxCell>
        <mxCell id="PbY_IpyNOD0vH7J5O5M_-82" value="if abs(f(camaron)) &amp;lt; e:" style="rounded=1;whiteSpace=wrap;html=1;" vertex="1" parent="1">
          <mxGeometry x="1570" y="250" width="130" height="40" as="geometry" />
        </mxCell>
        <mxCell id="PbY_IpyNOD0vH7J5O5M_-83" value="si" style="text;html=1;align=center;verticalAlign=middle;resizable=0;points=[];autosize=1;strokeColor=none;fillColor=none;" vertex="1" parent="1">
          <mxGeometry x="1670" y="300" width="30" height="30" as="geometry" />
        </mxCell>
        <mxCell id="PbY_IpyNOD0vH7J5O5M_-84" value="no" style="text;html=1;align=center;verticalAlign=middle;resizable=0;points=[];autosize=1;strokeColor=none;fillColor=none;" vertex="1" parent="1">
          <mxGeometry x="1570" y="310" width="40" height="30" as="geometry" />
        </mxCell>
        <mxCell id="PbY_IpyNOD0vH7J5O5M_-85" value="no" style="text;html=1;align=center;verticalAlign=middle;resizable=0;points=[];autosize=1;strokeColor=none;fillColor=none;" vertex="1" parent="1">
          <mxGeometry x="1550" y="420" width="40" height="30" as="geometry" />
        </mxCell>
        <mxCell id="PbY_IpyNOD0vH7J5O5M_-87" value="Return camaron" style="rounded=1;whiteSpace=wrap;html=1;" vertex="1" parent="1">
          <mxGeometry x="1715" y="300" width="90" height="30" as="geometry" />
        </mxCell>
        <mxCell id="PbY_IpyNOD0vH7J5O5M_-89" value="if f(antilope) * f(camaron) &amp;lt; 0:" style="rounded=1;whiteSpace=wrap;html=1;" vertex="1" parent="1">
          <mxGeometry x="1555" y="345" width="120" height="60" as="geometry" />
        </mxCell>
        <mxCell id="PbY_IpyNOD0vH7J5O5M_-90" value="si" style="text;html=1;align=center;verticalAlign=middle;resizable=0;points=[];autosize=1;strokeColor=none;fillColor=none;" vertex="1" parent="1">
          <mxGeometry x="1655" y="418" width="30" height="30" as="geometry" />
        </mxCell>
        <mxCell id="PbY_IpyNOD0vH7J5O5M_-91" value="brasil = camaron" style="rounded=1;whiteSpace=wrap;html=1;" vertex="1" parent="1">
          <mxGeometry x="1710" y="418" width="100" height="30" as="geometry" />
        </mxCell>
        <mxCell id="PbY_IpyNOD0vH7J5O5M_-92" value="else&lt;div&gt;antilope = camaron&lt;/div&gt;" style="rounded=1;whiteSpace=wrap;html=1;" vertex="1" parent="1">
          <mxGeometry x="1545" y="460" width="90" height="50" as="geometry" />
        </mxCell>
        <mxCell id="PbY_IpyNOD0vH7J5O5M_-93" value="" style="endArrow=classic;html=1;rounded=0;exitX=1;exitY=0.5;exitDx=0;exitDy=0;entryX=0;entryY=0.5;entryDx=0;entryDy=0;" edge="1" parent="1" source="PbY_IpyNOD0vH7J5O5M_-81" target="PbY_IpyNOD0vH7J5O5M_-82">
          <mxGeometry width="50" height="50" relative="1" as="geometry">
            <mxPoint x="1550" y="400" as="sourcePoint" />
            <mxPoint x="1600" y="350" as="targetPoint" />
          </mxGeometry>
        </mxCell>
        <mxCell id="PbY_IpyNOD0vH7J5O5M_-95" value="" style="rounded=1;whiteSpace=wrap;html=1;" vertex="1" parent="1">
          <mxGeometry x="2400" y="-10" width="510" height="60" as="geometry" />
        </mxCell>
      </root>
    </mxGraphModel>
  </diagram>
</mxfile>
